<svg width="480" height="272" viewBox="0 0 480 272" fill="none" xmlns="http://www.w3.org/2000/svg">
<path d="M382.684 110.771C428.755 152.914 387.67 280.752 259.499 223.5C187.804 191.693 99.8539 271.659 82.1815 173.854C61.2266 58.0246 155.982 -10.806 255.5 64.9999C349.982 131.194 336.612 68.6268 382.684 110.771Z" fill="#A5E9D6"/>
<mask id="mask0" mask-type="alpha" maskUnits="userSpaceOnUse" x="79" y="33" width="322" height="206">
<path d="M382.684 110.771C428.755 152.914 387.67 280.752 259.499 223.5C187.805 191.693 99.8541 271.659 82.1818 173.854C61.2268 58.0246 155.982 -10.806 255.5 64.9999C344.5 45 336.613 68.6268 382.684 110.771Z" fill="#A5E9D6"/>
</mask>
<g mask="url(#mask0)">
<path d="M243 79H123C120.791 79 119 80.7909 119 83V203C119 205.209 120.791 207 123 207H243C245.209 207 247 205.209 247 203V83C247 80.7909 245.209 79 243 79Z" fill="white"/>
<path d="M292.044 145.418C292.044 145.418 280.077 190.226 278.314 199.039C276.552 207.853 273.026 225.572 280.448 231.88C287.87 238.281 316.35 253.495 316.35 253.495L327.5 238L309.856 224.458L292.044 145.418Z" fill="#0F3E5E"/>
<path d="M292.044 145.418L290.838 212.955C290.838 215.367 291.024 217.779 291.395 220.191L301.414 272.328H322.38L316.535 213.604C316.814 202.843 320.339 190.69 321.731 177.517C321.731 177.517 325.812 153.025 314.587 145.604L292.044 145.418Z" fill="#174869"/>
<path d="M278.019 136.206L244.585 121.468L240.168 127.873L272.43 147.74C277.845 150.233 283.899 145.794 283.262 139.896C282.883 137.175 280.556 137.208 278.019 136.206Z" fill="#FFC0CB"/>
<path d="M241.121 116.926C240.515 116.236 239.608 115.898 238.763 116.028C237.633 116.233 237.506 117.193 238.088 118.254L238.5 119.5C237.359 119.89 234.719 119.575 230.832 115.045C230.139 114.256 229.035 114.09 228.264 114.505C227.684 114.839 227.543 115.573 227.784 116.147C227.784 116.147 227.778 116.239 227.871 116.245C227.328 116.024 226.68 115.982 226.193 116.322C225.613 116.656 225.472 117.39 225.713 117.964C225.707 118.056 225.794 118.155 225.88 118.254C225.603 118.235 225.319 118.31 225.122 118.483C224.542 118.817 224.401 119.551 224.642 120.125C224.723 120.316 224.803 120.507 224.982 120.612C225.069 120.711 225.069 120.711 225.155 120.809L225.063 120.803C224.483 121.137 224.342 121.872 224.583 122.445C224.664 122.636 224.744 122.828 224.923 122.932C225.956 124.208 227.098 125.213 228.161 126.026C228.161 126.026 228.161 126.026 228.253 126.032C228.785 126.439 229.229 126.747 229.767 127.061C232.083 128.607 237.253 127.737 241.648 128.768L245.497 122.512L241.121 116.926Z" fill="#FFC0CB"/>
<path d="M293.158 137.847L280.007 147.027C277.374 148.9 273.844 148.855 271.176 147.007C267.446 144.346 265.271 142.065 268.284 138.637L282.893 125.647L293.158 137.847Z" fill="#FFC0CB"/>
<path d="M303.561 126.627C303.561 126.627 301.362 134.665 291.058 141.521L276.815 126.179L290.024 113.284L303.561 126.627Z" fill="#2486D5"/>
<path d="M327.179 136.912L353.618 170.216L359.556 166.227C359.556 166.227 344.434 138.025 337.384 129.119C333.673 124.481 326.251 125.687 324.21 131.253C323.283 133.943 325.416 134.871 327.179 136.912Z" fill="#FFC0CB"/>
<path d="M354.917 176.989C355.102 177.824 355.845 178.566 356.587 178.751C357.7 179.03 358.535 178.287 358.535 177.174V176.247C359.648 176.432 361.689 177.36 363.266 182.926C363.545 183.854 364.472 184.503 365.307 184.41C365.957 184.318 366.42 183.854 366.42 183.112V183.019C366.791 183.483 367.348 183.668 367.905 183.668C368.554 183.575 369.018 183.111 369.018 182.369C369.018 182.277 369.018 182.184 369.018 182.091C369.296 182.184 369.575 182.277 369.853 182.184C370.502 182.091 370.966 181.627 370.966 180.885C370.966 180.699 370.966 180.514 370.873 180.328C370.873 180.236 370.873 180.143 370.781 180.143H370.873C371.523 180.05 371.987 179.586 371.987 178.844C371.987 178.659 371.987 178.473 371.894 178.287C371.43 176.803 370.966 175.412 370.317 174.206C370.317 174.206 370.317 174.206 370.317 174.113C370.038 173.556 369.76 173 369.389 172.536C367.998 170.216 363.081 168.825 359.555 166.135L353.618 170.124L354.917 176.989Z" fill="#FFC0CB"/>
<path d="M323.282 116.41L335.342 126.986C337.754 129.119 338.589 132.552 337.383 135.52C335.713 139.788 333.951 142.478 329.962 140.345L313.82 129.305L323.282 116.41Z" fill="#FFC0CB"/>
<path d="M307.79 109.081C307.79 109.081 318.087 109.267 327.179 117.616L319.015 132.83L302.873 127.264L307.79 109.081Z" fill="#2493DF"/>
<path d="M294.71 109.916C294.71 109.916 284.69 112.699 284.69 126.058C284.69 133.387 292.019 146.56 292.019 146.56L314.562 146.653C314.562 146.653 318.052 137.849 320 129.5C321.948 121.151 315.49 112.885 307.79 108.895L294.71 109.916Z" fill="#2493DF"/>
<path d="M318.5 133L309.5 127L316 141L318.5 133Z" fill="#2486D5"/>
<path d="M300.461 114.276C303.615 113.812 304.728 111.679 304.264 108.617L300.739 90.7125L291.277 92.1041L293.874 109.359C294.338 112.513 297.307 114.74 300.461 114.276Z" fill="#FFC0CB"/>
<path d="M298.512 94.145C298.512 94.145 301.574 103.7 293.41 106.947L292.668 101.196L301.017 94.8872" fill="#F0B5BE"/>
<path d="M291.555 102.494C297.492 101.938 301.852 97.2064 301.296 91.9186L299.626 74.6633H289.7C286.081 75.0344 280.979 79.8585 281.35 83.1054L283.113 93.774C283.484 97.7631 286.638 102.958 291.555 102.494Z" fill="#FFC0CB"/>
<path d="M283.577 87.6511L281.35 93.4029C280.979 93.9595 281.443 94.7016 282.185 94.6089L286.082 94.2378L283.577 87.6511Z" fill="#FFC0CB"/>
<path d="M285.525 84.9608C285.525 84.9608 283.392 85.0536 283.484 85.8885C283.484 85.8885 283.577 86.4451 285.433 86.3523C287.288 86.2596 287.752 86.074 287.845 85.5174C287.937 84.9608 286.546 84.868 285.525 84.9608Z" fill="#2D3846"/>
<path d="M285.618 89.1354C285.711 89.5993 285.34 90.0631 284.876 90.1559C284.412 90.2487 283.948 89.8776 283.855 89.4137C283.763 88.9499 284.134 88.486 284.598 88.3933C285.154 88.3005 285.525 88.6716 285.618 89.1354Z" fill="#2D3846"/>
<path d="M284.969 95.9077C284.969 95.9077 286.453 95.9077 287.102 94.145" stroke="#2D3846" stroke-width="0.5974" stroke-miterlimit="10" stroke-linecap="round" stroke-linejoin="round"/>
<path d="M301.389 108.061L307.79 109.081C307.79 109.081 301.11 119.935 294.431 117.338C286.824 114.369 296.936 108.617 296.936 108.617L301.389 108.061Z" fill="#FFC0CB"/>
<path d="M298.699 88.486C293.689 87.1872 292.761 82.5487 292.761 82.5487L279.495 85.1463C279.495 85.1463 277.454 71.973 293.318 69.4682C301.296 68.2622 306.306 72.0657 308.996 75.8693C311.501 79.4873 311.779 84.3114 310.017 88.3933C308.718 91.2691 305.471 95.351 301.946 97.2064L300.74 90.6197C300.74 90.6197 299.533 88.6716 298.699 88.486Z" fill="#F35843"/>
<path d="M305.007 87.4656C305.007 89.7849 303.151 91.733 300.832 91.733C298.513 91.733 296.75 89.7849 296.75 87.4656C296.75 85.1464 298.606 83.1982 300.925 83.1982C303.244 83.1982 305.007 85.1464 305.007 87.4656Z" fill="#FFC0CB"/>
<path d="M299.533 88.4861C299.533 88.4861 299.533 85.4247 302.409 85.8885" stroke="#2D3846" stroke-width="0.6026" stroke-miterlimit="10" stroke-linecap="round" stroke-linejoin="round"/>
<path d="M326.066 70.5814C326.993 76.1476 323.283 81.5283 317.624 82.456C312.057 83.3837 306.677 79.6729 305.749 74.0139C304.821 68.4477 308.532 63.0671 314.191 62.1394C319.85 61.2117 325.138 65.0152 326.066 70.5814Z" fill="#F35843"/>
</g>
<rect x="133" y="93" width="28" height="28" fill="#AFDBFE"/>
<rect x="133" y="129" width="28" height="28" fill="#AFDBFE"/>
<rect x="133" y="165" width="28" height="28" fill="#AFDBFE"/>
<rect x="169" y="93" width="28" height="28" fill="#AFDBFE"/>
<rect x="169" y="129" width="28" height="28" fill="#AFDBFE"/>
<rect x="169" y="165" width="28" height="28" fill="#AFDBFE"/>
<rect x="205" y="129" width="28" height="28" fill="#AFDBFE"/>
<rect x="205" y="165" width="28" height="28" fill="#AFDBFE"/>
<rect x="205.5" y="93.5" width="27" height="27" stroke="#AFDBFE"/>
<rect x="213.995" y="104" width="28" height="28" transform="rotate(12.3625 213.995 104)" fill="#2493DF"/>
<path d="M244.5 122L239.5 114.5C238.987 113.816 237.81 113.897 237.213 114.509C236.812 114.947 236.683 115.497 236.93 115.978L238.379 119.419C238.379 119.419 236.601 123.858 239.864 127.977L244.5 122Z" fill="#FFC0CB"/>
</svg>
